<svg enable-background="new 0 0 404 275.63" viewBox="0 0 404 275.63" xmlns="http://www.w3.org/2000/svg" xmlns:xlink="http://www.w3.org/1999/xlink"><linearGradient id="a"><stop offset=".003022927" stop-color="#082882" stop-opacity=".5"/><stop offset=".8591" stop-color="#082882" stop-opacity=".0707"/><stop offset="1" stop-color="#082882" stop-opacity="0"/></linearGradient><radialGradient id="b" cx="155.4219" cy="137.3991" gradientTransform="matrix(1.1226 0 0 1.1086 29.2832 -8.0046)" gradientUnits="userSpaceOnUse" r="86.7563" xlink:href="#a"/><radialGradient id="c" cx="202" cy="142.715" gradientUnits="userSpaceOnUse" r="70.4446" xlink:href="#a"/><g fill="#efc148" opacity=".9"><path d="m275.72 239.21c-23.33-5.65-47.85-8.51-72.86-8.51s-49.52 2.86-72.86 8.51c-1.83.44-2.7 1.67-1.95 2.75.57.81 1.9 1.3 3.31 1.3.45 0 .91-.05 1.36-.16 22.47-5.44 46.07-8.2 70.14-8.2s47.67 2.76 70.14 8.2c.44.11.9.16 1.36.16 1.41 0 2.74-.49 3.31-1.3.75-1.08-.12-2.31-1.95-2.75z" opacity=".7"/><path d="m263.9 259.71c-.43 0-.88-.05-1.31-.15-19.18-4.44-39.28-6.69-59.73-6.69s-40.55 2.25-59.73 6.69c-1.84.42-3.91-.11-4.63-1.19s.18-2.3 2.02-2.73c20.02-4.63 40.99-6.98 62.34-6.98s42.33 2.35 62.35 6.98c1.84.43 2.74 1.65 2.02 2.73-.56.83-1.91 1.34-3.33 1.34z" opacity=".4"/><path d="m153.2 275.63c-1.46 0-2.82-.53-3.35-1.38-.68-1.09.27-2.3 2.12-2.7 16.39-3.55 33.52-5.35 50.89-5.35 16.94 0 33.65 1.71 49.67 5.09 1.86.39 2.82 1.6 2.16 2.69-.67 1.09-2.71 1.66-4.57 1.27-15.24-3.22-31.14-4.85-47.26-4.85-16.53 0-32.82 1.71-48.42 5.1-.41.09-.83.13-1.24.13z" opacity=".15"/></g><g fill="#efc148" opacity=".9"><path d="m274.86 36.43c-23.33 5.65-47.85 8.51-72.86 8.51s-49.52-2.86-72.86-8.51c-1.83-.44-2.7-1.67-1.95-2.75.57-.81 1.9-1.3 3.31-1.3.45 0 .91.05 1.36.16 22.47 5.44 46.07 8.2 70.14 8.2s47.67-2.76 70.14-8.2c.44-.11.9-.16 1.36-.16 1.41 0 2.74.49 3.31 1.3.74 1.07-.13 2.3-1.95 2.75z" opacity=".7"/><path d="m263.04 15.93c-.43 0-.88.05-1.31.15-19.18 4.44-39.28 6.69-59.73 6.69s-40.55-2.25-59.73-6.69c-1.84-.42-3.91.11-4.63 1.19s.18 2.3 2.02 2.73c20.02 4.63 40.99 6.98 62.34 6.98s42.33-2.35 62.35-6.98c1.84-.43 2.74-1.65 2.02-2.73-.56-.84-1.91-1.34-3.33-1.34z" opacity=".4"/><path d="m152.34 0c-1.46 0-2.82.53-3.35 1.38-.68 1.09.27 2.3 2.12 2.7 16.39 3.55 33.51 5.35 50.89 5.35 16.94 0 33.65-1.71 49.67-5.09 1.86-.39 2.82-1.6 2.16-2.69-.67-1.09-2.71-1.66-4.57-1.27-15.25 3.21-31.14 4.85-47.26 4.85-16.53 0-32.82-1.71-48.42-5.1-.41-.09-.83-.13-1.24-.13z" opacity=".15"/></g><g opacity=".9"><path d="m404 62.79v1.28c-.03 3.45-.07 7.31-.14 11.45-.21 11.83-.62 23.67-1.24 34.7-1.1 19.42-2.76 34.22-5 42.26-5.14 18.28-17.08 33.95-33.84 46.99-8.14 6.35-16.9 11.66-25.63 15.94-3.07 1.52-5.9 2.76-8.45 3.83-.9.38-1.62.66-2.17.86-.55-.21-1.28-.52-2.14-.86-2.48-1.03-5.28-2.31-8.28-3.83-8.59-4.31-17.18-9.66-25.18-16.04-16.32-13.01-27.98-28.63-33.08-46.85-2.24-8.04-3.93-22.84-5-42.26-.62-11.04-1.03-22.87-1.24-34.7-.07-4.14-.14-8-.14-11.45 0-.45 0-.86 0-1.28 7.62-2.28 10.11-3 37.08-11 28.87-8.56 29.67-8.8 38.81-11.52 9.11 2.69 9.9 2.93 38.71 11.52 26.82 7.96 29.31 8.69 36.93 10.96z" fill="#4998f1" opacity=".8"/><path d="m375.06 63.49v1.32c-.04 3.56-.07 7.54-.14 11.81-.21 12.2-.64 24.4-1.28 35.78-1.14 20.02-2.85 35.28-5.16 43.57-5.3 18.85-17.61 35-34.89 48.44-8.39 6.54-17.43 12.02-26.43 16.43-3.17 1.57-6.08 2.85-8.71 3.95-.92.39-1.67.68-2.24.89-.57-.21-1.32-.53-2.21-.89-2.56-1.07-5.44-2.38-8.54-3.95-8.86-4.45-17.71-9.96-25.96-16.54-16.82-13.41-28.85-29.52-34.11-48.3-2.31-8.29-4.05-23.55-5.16-43.57-.64-11.38-1.07-23.58-1.28-35.78-.07-4.27-.14-8.25-.14-11.81 0-.46 0-.89 0-1.32 7.86-2.35 10.42-3.09 38.24-11.35 29.77-8.82 30.59-9.07 40.01-11.88 9.39 2.77 10.21 3.02 39.91 11.88 27.66 8.23 30.22 8.97 38.09 11.32z" fill="#3373cc" opacity=".8"/><path d="m346.11 64.19v1.36c-.04 3.66-.07 7.77-.15 12.16-.22 12.57-.66 25.13-1.32 36.86-1.17 20.63-2.93 36.35-5.31 44.88-5.46 19.42-18.14 36.05-35.94 49.9-8.65 6.74-17.95 12.38-27.22 16.93-3.26 1.61-6.27 2.93-8.98 4.07-.95.4-1.72.7-2.31.92-.59-.22-1.36-.55-2.27-.92-2.64-1.1-5.61-2.45-8.79-4.07-9.12-4.58-18.25-10.26-26.75-17.04-17.33-13.81-29.71-30.41-35.14-49.76-2.38-8.54-4.18-24.25-5.31-44.88-.66-11.72-1.1-24.29-1.32-36.86-.07-4.4-.15-8.5-.15-12.16 0-.48 0-.92 0-1.36 8.1-2.42 10.74-3.19 39.39-11.69 30.67-9.09 31.51-9.34 41.22-12.24 9.67 2.86 10.52 3.11 41.11 12.24 28.5 8.47 31.14 9.24 39.24 11.66z" fill="#1e4da7" opacity=".8"/><path d="m0 62.79v1.28c.03 3.45.07 7.31.14 11.45.21 11.83.62 23.67 1.24 34.7 1.1 19.42 2.76 34.22 5 42.26 5.14 18.28 17.08 33.95 33.84 46.99 8.14 6.35 16.9 11.66 25.63 15.94 3.07 1.52 5.9 2.76 8.45 3.83.9.38 1.62.66 2.17.86.55-.21 1.28-.52 2.14-.86 2.48-1.03 5.28-2.31 8.28-3.83 8.59-4.31 17.18-9.66 25.18-16.04 16.32-13.01 27.98-28.63 33.08-46.85 2.24-8.04 3.93-22.84 5-42.26.62-11.04 1.03-22.87 1.24-34.7.07-4.14.14-8 .14-11.45 0-.45 0-.86 0-1.28-7.62-2.28-10.11-3-37.08-11-28.87-8.56-29.67-8.8-38.81-11.52-9.11 2.69-9.9 2.93-38.71 11.52-26.82 7.96-29.31 8.69-36.93 10.96z" fill="#4998f1" opacity=".8"/><path d="m28.94 63.49v1.32c.04 3.56.07 7.54.14 11.81.21 12.2.64 24.4 1.28 35.78 1.14 20.02 2.85 35.28 5.16 43.57 5.3 18.85 17.61 35 34.89 48.44 8.39 6.54 17.43 12.02 26.43 16.43 3.17 1.57 6.08 2.85 8.71 3.95.92.39 1.67.68 2.24.89.57-.21 1.32-.53 2.21-.89 2.56-1.07 5.44-2.38 8.54-3.95 8.86-4.45 17.71-9.96 25.96-16.54 16.82-13.41 28.85-29.52 34.11-48.3 2.31-8.29 4.05-23.55 5.16-43.57.64-11.38 1.07-23.58 1.28-35.78.07-4.27.14-8.25.14-11.81 0-.46 0-.89 0-1.32-7.86-2.35-10.42-3.09-38.24-11.35-29.77-8.82-30.59-9.07-40.01-11.88-9.39 2.77-10.21 3.02-39.91 11.88-27.66 8.23-30.22 8.97-38.09 11.32z" fill="#3373cc" opacity=".8"/><path d="m57.89 64.19v1.36c.04 3.66.07 7.77.15 12.16.22 12.57.66 25.13 1.32 36.86 1.17 20.63 2.93 36.35 5.31 44.88 5.46 19.42 18.14 36.05 35.94 49.9 8.65 6.74 17.95 12.38 27.22 16.93 3.26 1.61 6.27 2.93 8.98 4.07.95.4 1.72.7 2.31.92.59-.22 1.36-.55 2.27-.92 2.64-1.1 5.61-2.45 8.79-4.07 9.12-4.58 18.25-10.26 26.75-17.04 17.33-13.81 29.71-30.41 35.14-49.76 2.38-8.54 4.18-24.25 5.31-44.88.66-11.72 1.1-24.29 1.32-36.86.07-4.4.15-8.5.15-12.16 0-.48 0-.92 0-1.36-8.1-2.42-10.74-3.19-39.39-11.69-30.67-9.09-31.51-9.34-41.22-12.24-9.67 2.86-10.52 3.11-41.11 12.24-28.5 8.47-31.14 9.24-39.24 11.66z" fill="#1e4da7" opacity=".8"/></g><ellipse cx="203.75" cy="144.31" fill="url(#b)" rx="100.33" ry="93.18"/><path d="m114.03 67.04v1.48c.04 4 .08 8.49.16 13.3.24 13.74.72 27.47 1.44 40.29 1.28 22.55 3.2 39.73 5.81 49.06 5.97 21.23 19.82 39.41 39.29 54.55 9.45 7.37 19.62 13.54 29.76 18.5 3.56 1.76 6.85 3.2 9.81 4.45 1.04.44 1.88.76 2.52 1 .64-.24 1.48-.6 2.48-1 2.88-1.2 6.13-2.68 9.61-4.45 9.97-5.01 19.94-11.21 29.24-18.62 18.94-15.1 32.48-33.24 38.41-54.39 2.6-9.33 4.57-26.51 5.81-49.06.72-12.82 1.2-26.55 1.44-40.29.08-4.81.16-9.29.16-13.3 0-.52 0-1 0-1.48-8.85-2.64-11.73-3.48-43.05-12.78-33.52-9.93-34.44-10.21-45.05-13.38-10.57 3.12-11.49 3.4-44.93 13.38-31.17 9.26-34.05 10.1-42.91 12.74z" fill="#082882"/><path d="m201.9 40.93c-10.57 3.12-11.49 3.4-44.93 13.38-31.16 9.25-34.04 10.09-42.89 12.74v1.48c.04 4 .08 8.49.16 13.3.24 13.74.72 27.47 1.44 40.29 1.28 22.55 3.2 39.73 5.81 49.06 5.97 21.23 19.82 39.41 39.29 54.55 9.45 7.37 19.62 13.54 29.76 18.5 3.56 1.76 6.85 3.2 9.81 4.45 1.04.44 1.88.76 2.52 1" fill="#0d3ecc" opacity=".4"/><ellipse cx="202" cy="142.71" fill="url(#c)" rx="72.57" ry="68.25"/><circle cx="202" cy="141.77" fill="#83cc98" r="38.59"/><circle cx="202" cy="141.77" fill="#56b373" r="33.59"/><path d="m230.62 117.52c-4.04 2.59-7.7 5.81-11.1 9.15-3.39 3.37-6.5 7-9.38 10.75-2.76 3.86-5.52 7.69-7.8 11.82l-.88 1.53c-.27.52-.53 1.06-.78 1.59l-1.52 3.19c-.96 2.15-1.79 4.36-2.86 6.43-1.33 2.57-4.49 3.58-7.07 2.25-.59-.31-1.1-.71-1.52-1.18l-.05-.06c-1.56-1.77-2.99-3.64-4.34-5.59-1.36-1.94-2.64-3.94-3.87-5.98s-2.37-4.16-3.44-6.33c-1.06-2.19-2.04-4.43-2.81-6.85-.09-.28.07-.59.35-.68.14-.05.3-.03.42.04 2.24 1.21 4.26 2.59 6.22 4.03 1.94 1.45 3.81 2.96 5.59 4.54s3.51 3.21 5.16 4.9c1.67 1.68 3.24 3.43 4.69 5.28l-8.64 1c1.25-2.22 2.62-4.36 4.08-6.44l2.26-3.07c.37-.51.75-1.02 1.11-1.54l1.17-1.5 2.31-3c.79-.98 1.63-1.93 2.45-2.89 1.59-1.96 3.4-3.73 5.14-5.54 3.62-3.51 7.46-6.76 11.57-9.61 4.11-2.84 8.42-5.37 13.11-7.14.26-.1.55.03.64.29.08.22 0 .47-.2.6z" fill="#fff"/></svg>